<svg width="178" height="39" viewBox="0 0 178 39" fill="none" xmlns="http://www.w3.org/2000/svg">
<path fill-rule="evenodd" clip-rule="evenodd" d="M90.5052 0C88.804 0 87.0801 1.16518 87.0801 3.39198C87.0801 5.61878 88.804 6.79691 90.5052 6.79691C92.2064 6.79691 93.9271 5.63173 93.9271 3.40169C93.9271 1.17166 92.2064 0 90.5052 0ZM31.4873 1.32707H37.5145V27.9095H31.4873V1.32707ZM50.2915 8.22741C52.0693 8.19394 53.8073 8.75439 55.2299 9.81983L55.3044 8.65465H61.1372V27.9093H55.3887L55.285 26.6568C53.8518 27.7698 52.0998 28.3958 50.285 28.4434H50.191C47.3135 28.4434 44.88 27.5306 43.1334 25.7991C41.3349 23.9995 40.3628 21.3972 40.3628 18.2642C40.3628 15.2541 41.3512 12.6745 43.1139 10.9365C44.8767 9.1984 47.4237 8.22741 50.2915 8.22741ZM52.517 22.4197C53.069 22.1846 53.5618 21.8298 53.9597 21.3811C54.6766 20.5098 55.0582 19.4112 55.0355 18.2836C55.0355 16.1345 53.7004 13.8235 50.7678 13.8235C48.1723 13.8235 46.4289 15.5875 46.4289 18.2642C46.4289 20.9409 48.1755 22.7404 50.7678 22.7404C51.3675 22.7644 51.965 22.6548 52.517 22.4197ZM74.9447 16.8952L73.9726 19.478L73.0685 16.8045L70.1975 8.65472H63.2532L70.6155 26.7572L66.9635 35.2371H73.6064L85.0678 8.65472H78.3795L74.9447 16.8952ZM87.4723 8.58346H93.5384V27.9094H87.4723V8.58346ZM102.475 10.1533C103.926 8.99765 105.727 8.36879 107.582 8.36992C112.537 8.36992 115.871 12.1762 115.881 17.837V27.9062H109.818V17.8727C109.818 15.4711 108.554 14.0372 106.438 14.0372C104.371 14.0372 102.812 15.7786 102.812 18.0863V27.9094H96.782V8.61914H102.291L102.475 10.1533ZM143.159 21.4168C141.455 21.4168 139.734 22.582 139.734 24.8088C139.734 27.0356 141.455 28.204 143.159 28.204C144.863 28.204 146.581 27.0389 146.581 24.8088C146.581 22.5788 144.847 21.4168 143.159 21.4168ZM149.199 3.39198C149.199 1.16518 150.923 0 152.624 0C154.338 0 156.046 1.17166 156.046 3.40169C156.046 5.63173 154.312 6.79691 152.624 6.79691C150.936 6.79691 149.199 5.61878 149.199 3.39198ZM155.67 8.58346H149.604V27.9094H155.67V8.58346ZM132.018 7.90708H138.084V17.5296L138.092 17.6416V17.6417V17.6418C138.106 17.8595 138.12 18.0761 138.12 18.2999C138.12 24.1873 133.982 28.3011 128.107 28.3011C122.232 28.3011 118.13 24.1873 118.13 18.2999C118.13 12.5063 122.31 8.29871 128.072 8.29871C129.421 8.29118 130.759 8.53598 132.018 9.02048V7.90708ZM124.193 18.2999C124.193 20.4393 125.405 22.5981 128.107 22.5981C130.81 22.5981 132.018 20.4296 132.018 18.2999C132.018 16.1702 130.557 13.966 128.107 13.966C125.418 13.966 124.193 16.2123 124.193 18.2999ZM167.952 8.29866C162.193 8.29866 158.01 12.5063 158.01 18.2998C158.01 24.1873 162.115 28.301 167.987 28.301C173.859 28.301 178 24.1873 178 18.2998C178 12.5063 173.775 8.29866 167.952 8.29866ZM167.987 22.5981C165.285 22.5981 164.076 20.4392 164.076 18.2998C164.076 16.2122 165.301 13.966 167.987 13.966C170.437 13.966 171.902 16.1701 171.902 18.2998C171.902 20.4295 170.69 22.5981 167.987 22.5981ZM124.215 28.6377C124.215 30.6962 125.427 32.7806 128.104 32.7806C130.787 32.7806 131.989 30.6962 131.989 28.6377H138.042C138.042 34.3083 133.93 38.2796 128.104 38.2796C122.278 38.2796 118.208 34.3115 118.208 28.6377H124.215Z" fill="white"/>
<path fill-rule="evenodd" clip-rule="evenodd" d="M1.04904 9.66004C1.72911 8.02324 2.72599 6.53663 3.98251 5.28547C5.23471 4.02985 6.72299 3.03376 8.36181 2.35445C10.0006 1.67514 11.7577 1.32599 13.5321 1.32708H27.0479V14.3124C27.0436 17.365 26.0049 20.3263 24.1009 22.7141C22.1968 25.102 19.5396 26.7757 16.5619 27.4628C16.3253 27.5211 16.079 27.5729 15.8295 27.6085C14.4291 27.86 12.9965 27.8753 11.591 27.6538L16.2281 32.635C15.065 34.1247 13.4648 35.2142 11.6513 35.751C9.83783 36.2878 7.90173 36.2452 6.11373 35.6289C4.32574 35.0127 2.77525 33.8538 1.67908 32.3142C0.582903 30.7746 -0.00414444 28.9313 2.20253e-05 27.0421V14.8238H0.0194646C0.0190899 13.0516 0.36897 11.2968 1.04904 9.66004ZM18.1188 18.884C19.3331 17.6712 20.0175 16.0277 20.0226 14.3124H20.0032V8.35055H13.5223C11.8035 8.35055 10.1551 9.03255 8.93967 10.2465C7.72428 11.4605 7.04147 13.107 7.04147 14.8238V27.0421C7.05138 27.5692 7.26401 28.0722 7.63527 28.447C8.00653 28.8217 8.50794 29.0393 9.03553 29.0547C9.56311 29.0701 10.0764 28.8821 10.4689 28.5297C10.8615 28.1772 11.1031 27.6874 11.1439 27.1618V20.3228C11.9051 20.6325 12.7198 20.7898 13.5418 20.7857C15.259 20.7805 16.9045 20.0969 18.1188 18.884ZM15.9882 14.6133C15.9882 15.9683 14.8885 17.0667 13.5319 17.0667C12.1754 17.0667 11.0757 15.9683 11.0757 14.6133C11.0757 13.2584 12.1754 12.1599 13.5319 12.1599C14.8885 12.1599 15.9882 13.2584 15.9882 14.6133Z" fill="#FFD205"/>
</svg>
